<svg width="78" height="76" viewBox="0 0 78 76" fill="none" xmlns="http://www.w3.org/2000/svg">
<path d="M26 34.8333C29.4478 34.8333 32.7544 33.4988 35.1924 31.1234C37.6304 28.7479 39 25.5261 39 22.1667C39 18.8073 37.6304 15.5854 35.1924 13.21C32.7544 10.8345 29.4478 9.5 26 9.5C22.5522 9.5 19.2456 10.8345 16.8076 13.21C14.3696 15.5854 13 18.8073 13 22.1667C13 25.5261 14.3696 28.7479 16.8076 31.1234C19.2456 33.4988 22.5522 34.8333 26 34.8333ZM55.25 34.8333C57.8359 34.8333 60.3158 33.8324 62.1443 32.0508C63.9728 30.2693 65 27.8529 65 25.3333C65 22.8138 63.9728 20.3974 62.1443 18.6158C60.3158 16.8342 57.8359 15.8333 55.25 15.8333C52.6641 15.8333 50.1842 16.8342 48.3557 18.6158C46.5272 20.3974 45.5 22.8138 45.5 25.3333C45.5 27.8529 46.5272 30.2693 48.3557 32.0508C50.1842 33.8324 52.6641 34.8333 55.25 34.8333ZM13.8125 41.1667C11.8731 41.1667 10.0131 41.9173 8.64178 43.2535C7.27042 44.5897 6.5 46.402 6.5 48.2917V49.0833C6.5 49.0833 6.5 63.3333 26 63.3333C30.0235 63.3333 33.215 62.7253 35.75 61.7658V49.0833C35.75 45.714 37.9112 42.8387 40.9532 41.6923C40.0762 41.3401 39.1361 41.1614 38.1875 41.1667H13.8125ZM39 49.0833C39 47.8236 39.5136 46.6154 40.4279 45.7246C41.3421 44.8338 42.5821 44.3333 43.875 44.3333H69.875C71.1679 44.3333 72.4079 44.8338 73.3221 45.7246C74.2364 46.6154 74.75 47.8236 74.75 49.0833V61.75C74.75 63.0098 74.2364 64.218 73.3221 65.1088C72.4079 65.9996 71.1679 66.5 69.875 66.5H43.875C42.5821 66.5 41.3421 65.9996 40.4279 65.1088C39.5136 64.218 39 63.0098 39 61.75V49.0833ZM42.25 50.6667V53.8333C43.9739 53.8333 45.6272 53.1661 46.8462 51.9783C48.0652 50.7906 48.75 49.1797 48.75 47.5H45.5C45.5 48.3399 45.1576 49.1453 44.5481 49.7392C43.9386 50.333 43.112 50.6667 42.25 50.6667ZM71.5 53.8333V50.6667C70.638 50.6667 69.8114 50.333 69.2019 49.7392C68.5924 49.1453 68.25 48.3399 68.25 47.5H65C65 49.1797 65.6848 50.7906 66.9038 51.9783C68.1228 53.1661 69.7761 53.8333 71.5 53.8333ZM65 63.3333H68.25C68.25 62.4935 68.5924 61.688 69.2019 61.0942C69.8114 60.5003 70.638 60.1667 71.5 60.1667V57C69.7761 57 68.1228 57.6673 66.9038 58.855C65.6848 60.0427 65 61.6536 65 63.3333ZM42.25 57V60.1667C43.112 60.1667 43.9386 60.5003 44.5481 61.0942C45.1576 61.688 45.5 62.4935 45.5 63.3333H48.75C48.75 61.6536 48.0652 60.0427 46.8462 58.855C45.6272 57.6673 43.9739 57 42.25 57ZM56.875 60.9583C58.3834 60.9583 59.8301 60.3745 60.8967 59.3352C61.9633 58.296 62.5625 56.8864 62.5625 55.4167C62.5625 53.9469 61.9633 52.5374 60.8967 51.4981C59.8301 50.4589 58.3834 49.875 56.875 49.875C55.3666 49.875 53.9199 50.4589 52.8533 51.4981C51.7867 52.5374 51.1875 53.9469 51.1875 55.4167C51.1875 56.8864 51.7867 58.296 52.8533 59.3352C53.9199 60.3745 55.3666 60.9583 56.875 60.9583Z" fill="#023047"/>
</svg>
