<svg width="84" height="84" viewBox="0 0 84 84" fill="none" xmlns="http://www.w3.org/2000/svg">
<path d="M42 8.3999C37.5444 8.3999 33.2712 10.1699 30.1206 13.3205C26.97 16.4711 25.2 20.7443 25.2 25.1999C25.2 29.6555 26.97 33.9287 30.1206 37.0793C33.2712 40.2299 37.5444 41.9999 42 41.9999C46.4556 41.9999 50.7288 40.2299 53.8794 37.0793C57.03 33.9287 58.8 29.6555 58.8 25.1999C58.8 20.7443 57.03 16.4711 53.8794 13.3205C50.7288 10.1699 46.4556 8.3999 42 8.3999ZM21.0378 46.1999C19.9315 46.1949 18.8352 46.4085 17.8117 46.8284C16.7882 47.2483 15.8577 47.8663 15.0737 48.6468C14.2896 49.4273 13.6675 50.355 13.243 51.3766C12.8185 52.3982 12.6 53.4936 12.6 54.5999C12.6 61.7021 16.0986 67.0571 21.567 70.5473C25.9686 73.3529 31.626 74.9489 37.8 75.4319V58.7999C37.8 56.5721 38.685 54.4355 40.2603 52.8602C41.8356 51.2849 43.9722 50.3999 46.2 50.3999H70.2744C69.5372 49.123 68.4768 48.0626 67.1999 47.3253C65.923 46.5881 64.4745 46.1999 63 46.1999H21.0378ZM79.8 60.8999V73.4999C79.8 75.1708 79.1363 76.7732 77.9548 77.9547C76.7733 79.1362 75.1709 79.7999 73.5 79.7999H48.3C46.6291 79.7999 45.0267 79.1362 43.8452 77.9547C42.6638 76.7732 42 75.1708 42 73.4999V60.8999C42 59.229 42.6638 57.6266 43.8452 56.4451C45.0267 55.2637 46.6291 54.5999 48.3 54.5999H73.5C75.1709 54.5999 76.7733 55.2637 77.9548 56.4451C79.1363 57.6266 79.8 59.229 79.8 60.8999ZM75.6 73.4999V69.2999C73.9291 69.2999 72.3267 69.9637 71.1452 71.1451C69.9638 72.3266 69.3 73.929 69.3 75.5999H73.5C73.5 75.043 73.7213 74.5088 74.1151 74.115C74.5089 73.7212 75.043 73.4999 75.6 73.4999ZM75.6 60.8999C75.043 60.8999 74.5089 60.6787 74.1151 60.2848C73.7213 59.891 73.5 59.3569 73.5 58.7999H69.3C69.3 60.4708 69.9638 62.0732 71.1452 63.2547C72.3267 64.4362 73.9291 65.0999 75.6 65.0999V60.8999ZM48.3 58.7999C48.3 59.3569 48.0788 59.891 47.6849 60.2848C47.2911 60.6787 46.757 60.8999 46.2 60.8999V65.0999C47.8709 65.0999 49.4733 64.4362 50.6548 63.2547C51.8363 62.0732 52.5 60.4708 52.5 58.7999H48.3ZM46.2 73.4999C46.757 73.4999 47.2911 73.7212 47.6849 74.115C48.0788 74.5088 48.3 75.043 48.3 75.5999H52.5C52.5 73.929 51.8363 72.3266 50.6548 71.1451C49.4733 69.9637 47.8709 69.2999 46.2 69.2999V73.4999ZM60.9 60.8999C59.2291 60.8999 57.6267 61.5637 56.4452 62.7451C55.2638 63.9266 54.6 65.529 54.6 67.1999C54.6 68.8708 55.2638 70.4732 56.4452 71.6547C57.6267 72.8362 59.2291 73.4999 60.9 73.4999C62.5709 73.4999 64.1733 72.8362 65.3548 71.6547C66.5363 70.4732 67.2 68.8708 67.2 67.1999C67.2 65.529 66.5363 63.9266 65.3548 62.7451C64.1733 61.5637 62.5709 60.8999 60.9 60.8999Z" fill="#023047"/>
</svg>
