<svg width="221" height="220" viewBox="0 0 221 220" fill="none" xmlns="http://www.w3.org/2000/svg">
<path d="M5.89324 143.965C-12.8255 86.6766 19.1281 24.8364 76.4164 6.11766C133.705 -12.6011 196.007 18.4413 214.726 75.7296C233.445 133.018 201.491 194.858 144.203 213.577C86.9146 232.295 24.612 201.253 5.89324 143.965Z" fill="#FFB703"/>
<path d="M79.8021 48.4167C76.0973 48.4167 72.5443 49.8884 69.9247 52.508C67.305 55.1277 65.8333 58.6807 65.8333 62.3854V158.615C65.8333 162.319 67.305 165.872 69.9247 168.492C72.5443 171.112 76.0973 172.583 79.8021 172.583H126.365C130.047 172.583 133.58 171.13 136.196 168.538C138.812 165.947 140.299 162.427 140.333 158.745V149.308C140.333 148.073 139.843 146.889 138.97 146.016C138.096 145.143 136.912 144.652 135.677 144.652C132.865 144.652 131.089 143.888 129.866 142.901C128.575 141.864 127.507 140.263 126.694 138.003C124.999 133.316 124.819 127.138 124.819 121.365C124.819 120.184 124.37 119.048 123.565 118.186L122.54 117.087C122.203 116.715 121.851 116.357 121.485 116.013C121.025 115.578 119.622 114.244 114.14 108.762C111.229 105.85 109.621 103.391 109.093 101.51C108.875 100.86 108.84 100.162 108.994 99.4926C109.223 98.719 109.664 98.0246 110.266 97.4873C110.803 96.8884 111.495 96.4499 112.265 96.2208C112.932 96.0686 113.628 96.103 114.277 96.3202C116.152 96.8479 118.61 98.4682 121.522 101.38C124.875 104.732 128.059 107.88 130.909 110.692C135.627 115.361 139.433 119.136 141.587 121.433C142.431 122.328 143.596 122.854 144.826 122.893C146.056 122.933 147.252 122.484 148.152 121.645C149.052 120.805 149.583 119.644 149.629 118.414C149.675 117.184 149.233 115.986 148.398 115.082C145.756 112.318 143.067 109.598 140.333 106.924V86.0392L157.977 103.683C160.591 106.303 162.069 109.854 162.069 113.554V167.927C162.069 169.162 162.559 170.346 163.432 171.22C164.306 172.093 165.49 172.583 166.725 172.583C167.96 172.583 169.144 172.093 170.017 171.22C170.891 170.346 171.381 169.162 171.381 167.927V113.561C171.381 110.503 170.778 107.475 169.608 104.65C168.437 101.825 166.721 99.258 164.558 97.0962L140.333 72.8713V62.3792C140.332 58.6755 138.859 55.1241 136.24 52.5058C133.62 49.8875 130.068 48.4167 126.365 48.4167H79.8021ZM117.934 141.169C118.536 142.833 119.312 144.484 120.318 146.024C117.945 147.163 115.943 148.95 114.541 151.177C113.14 153.405 112.396 155.983 112.396 158.615V163.271H93.7708V158.615C93.7708 154.91 92.2991 151.357 89.6795 148.737C87.0598 146.118 83.5068 144.646 79.8021 144.646H75.1458V76.3542H79.8021C83.5068 76.3542 87.0598 74.8825 89.6795 72.2628C92.2991 69.6432 93.7708 66.0901 93.7708 62.3854V57.7292H112.396V62.3854C112.396 66.0901 113.868 69.6432 116.487 72.2628C119.107 74.8825 122.66 76.3542 126.365 76.3542H131.021V97.6984L128.109 94.7929C124.812 91.4963 120.982 88.5349 116.804 87.3553C114.574 86.6931 112.207 86.6395 109.95 87.2001C108.549 87.557 107.221 88.1558 106.026 88.9695C102.516 88.4907 98.9421 88.8774 95.6157 90.0958C92.2893 91.3143 89.3112 93.3275 86.9409 95.9603C84.5706 98.593 82.8799 101.765 82.0161 105.201C81.1523 108.637 81.1416 112.231 81.9849 115.672C82.8282 119.113 84.4999 122.295 86.8545 124.942C89.2091 127.589 92.1751 129.62 95.4942 130.858C98.8133 132.096 102.385 132.504 105.898 132.046C109.411 131.588 112.758 130.279 115.649 128.231C115.879 132.477 116.456 137.09 117.934 141.169ZM90.6666 110.5C90.6661 107.795 91.5487 105.164 93.1803 103.007C94.8119 100.85 97.1032 99.2846 99.706 98.549C99.4736 100.386 99.6173 102.251 100.128 104.031C101.302 108.209 104.257 112.046 107.56 115.349L111.688 119.459C109.932 121.146 107.719 122.281 105.323 122.72C102.928 123.159 100.456 122.884 98.2154 121.93C95.9748 120.975 94.0646 119.382 92.7224 117.35C91.3802 115.318 90.6653 112.935 90.6666 110.5ZM75.1458 62.3854C75.1458 61.1505 75.6364 59.9662 76.5096 59.0929C77.3828 58.2197 78.5671 57.7292 79.8021 57.7292H84.4583V62.3854C84.4583 63.6203 83.9677 64.8047 83.0945 65.6779C82.2213 66.5511 81.037 67.0417 79.8021 67.0417H75.1458V62.3854ZM121.708 57.7292H126.365C127.599 57.7292 128.784 58.2197 129.657 59.0929C130.53 59.9662 131.021 61.1505 131.021 62.3854V67.0417H126.365C125.13 67.0417 123.945 66.5511 123.072 65.6779C122.199 64.8047 121.708 63.6203 121.708 62.3854V57.7292ZM131.021 153.958V158.615C131.021 159.849 130.53 161.034 129.657 161.907C128.784 162.78 127.599 163.271 126.365 163.271H121.708V158.615C121.708 157.38 122.199 156.195 123.072 155.322C123.945 154.449 125.13 153.958 126.365 153.958H131.021ZM84.4583 163.271H79.8021C78.5671 163.271 77.3828 162.78 76.5096 161.907C75.6364 161.034 75.1458 159.849 75.1458 158.615V153.958H79.8021C81.037 153.958 82.2213 154.449 83.0945 155.322C83.9677 156.195 84.4583 157.38 84.4583 158.615V163.271Z" fill="#FDFDFD"/>
</svg>
