<svg width="184" height="184" viewBox="0 0 184 184" fill="none" xmlns="http://www.w3.org/2000/svg">
<rect width="131.88" height="130.926" transform="matrix(0.95062 -0.310359 0.310815 0.95047 9.4554 40.93)" fill="#219EBC"/>
<path fill-rule="evenodd" clip-rule="evenodd" d="M184 87.4758L87.3972 0.149658L0 96.6739L96.6028 184L184 87.4758ZM69.5746 118.013C76.1512 119.704 82.4087 120.55 88.347 120.55C93.9524 120.55 98.8363 119.732 102.999 118.096C107.161 116.488 110.38 114.062 112.655 110.818C114.959 107.574 116.11 103.554 116.11 98.7568V72.6797H120.106V59.8284H98.9196L95.9226 66.0253C92.6205 61.3117 88.2361 58.955 82.7694 58.955C78.8013 58.955 75.4158 59.9809 72.6132 62.0326C69.8382 64.0844 67.7431 66.8432 66.3279 70.3091C64.9127 73.7472 64.2051 77.6012 64.2051 81.8712C64.2051 86.0302 64.8988 89.8149 66.2863 93.2253C67.7015 96.6357 69.7966 99.3391 72.5715 101.335C75.3465 103.359 78.7458 104.371 82.7694 104.371C85.5721 104.371 88.0834 103.9 90.3034 102.957C92.5233 102.015 94.3964 100.864 95.9226 99.5054C95.9226 106.16 92.5649 109.487 85.8496 109.487C83.5187 109.487 81.1461 109.182 78.7319 108.572C76.3177 107.99 73.2653 107.13 69.5746 105.993V118.013ZM90.6364 92.9758C91.9406 92.9758 93.1338 92.5737 94.216 91.7696C95.2983 90.9656 95.9504 90.1753 96.1724 89.399V74.2186C95.1179 72.1668 93.1616 71.1409 90.3034 71.1409C88.0279 71.1409 86.1965 72.1252 84.809 74.0938C83.4493 76.0624 82.7694 78.738 82.7694 82.1207C82.7694 85.3647 83.4493 87.9849 84.809 89.9813C86.1965 91.9776 88.1389 92.9758 90.6364 92.9758Z" fill="#FFB703"/>
</svg>
