<svg width="172" height="172" viewBox="0 0 172 172" fill="none" xmlns="http://www.w3.org/2000/svg">
<path d="M75.8594 10.8561C74.5306 10.8517 73.1981 10.8524 71.8617 10.8585C65.4295 10.8884 58.8945 11.0574 52.3038 11.3019L54.2106 19.6644C61.0741 18.8884 68.5988 18.3106 76.1228 18.0217C80.199 17.8651 84.2504 17.7825 88.1802 17.8033C99.9699 17.8648 110.667 18.8548 117.665 21.5665L120.658 22.7268L119.322 25.6444C109.559 46.9714 107.301 67.5466 108.831 87.7344C109.587 63.776 119.545 42.4668 132.619 15.1491C114.829 12.1928 95.7889 10.9223 75.8594 10.8558V10.8561ZM85.2771 23.8871C82.341 23.8895 79.3478 23.949 76.3549 24.0639C62.3557 24.6014 48.4052 26.2441 39.3131 28.1273C49.4695 46.9664 57.6855 65.8488 62.991 84.2565C63.6509 84.2345 64.3114 84.2395 64.971 84.2716C66.3208 84.3378 67.6558 84.5208 68.9602 84.8057C63.56 67.5395 57.409 51.6151 49.7627 35.7148L48.035 32.1223L51.9608 31.4276C61.8226 29.6814 72.0015 29.0055 81.6892 29.0025C82.3354 29.0025 82.979 29.0052 83.6202 29.0105C89.7759 29.0643 95.7086 29.3827 101.205 29.8621L104.919 30.1863L103.836 33.753C97.5536 54.4343 96.323 76.6448 99.8749 97.7766C99.9345 97.831 99.9934 97.8859 100.052 97.9412C101.333 97.4924 102.531 97.0349 103.648 96.5457C100.875 73.9056 102.103 50.5482 112.459 26.2673C106.68 24.7949 97.871 24.0252 88.1913 23.9043C87.2199 23.8923 86.2485 23.8863 85.2771 23.8871ZM133.97 26.368C123.57 48.3908 116.184 66.0389 114.973 85.0909C121.705 62.6496 134.716 42.5327 149.543 29.6082C144.396 28.3243 139.201 27.2434 133.97 26.368ZM34.8811 32.5926C28.5789 33.892 22.4225 35.5415 16.4677 37.8205C19.3654 40.3333 24.6041 45.0079 30.96 51.2207C33.8853 48.2097 36.8688 45.235 39.9806 42.53C38.3324 39.1913 36.6324 35.8784 34.8811 32.5926ZM82.5919 35.1061C78.0164 35.0839 73.3328 35.215 68.6324 35.5405C68.1392 40.1368 65.4208 44.4368 62.174 48.6656C67.3578 60.9169 71.8348 73.4184 75.8654 86.6917C82.0383 88.5125 88.1453 90.6648 93.0923 93.2438C91.2547 78.9806 91.506 64.3656 93.8918 50.0731C89.5632 45.6018 87.3085 40.6367 87.1277 35.1777C85.6161 35.1374 84.1041 35.1136 82.5919 35.1061ZM143.739 44.1714C135.431 54.0144 128.11 66.3423 123.122 79.7512C132.281 66.7229 143.544 56.5608 155.532 49.3825C151.627 47.5883 147.695 45.8511 143.739 44.1714ZM42.7087 48.1889C37.8061 52.6192 32.9618 57.9368 27.9171 63.0027C38.7642 69.4497 48.0031 77.0845 55.5399 85.7322C56.0078 85.5555 56.4805 85.3966 56.9558 85.2518C53.4292 73.1258 48.596 60.7173 42.7087 48.1889ZM121.112 90.0977C115.604 96.7453 110.418 100.255 103.277 103.055C104.08 106.152 102.888 109.708 100.142 112.428C98.5264 114.027 96.4967 115.85 93.529 117.035C93.9572 117.289 94.3942 117.527 94.8392 117.75C98.9927 119.823 106.331 119.154 113.148 116.054C119.944 112.963 126.015 107.624 128.265 102.216C129.393 99.1758 128.587 97.5902 126.613 95.2648C125.208 93.6103 123.155 91.9424 121.112 90.0981V90.0977ZM63.9763 90.2946C60.3767 90.2617 56.721 91.3004 53.6999 93.5734C49.4033 96.8061 46.091 102.571 46.0614 112.364V112.431L46.058 112.498C45.0771 133.118 46.5955 142.632 49.6039 147.793C52.2591 152.349 56.6753 154.53 63.1354 158.541C63.4431 157.733 63.7636 156.739 64.0643 155.485C64.8292 152.294 65.4621 147.911 65.8632 143.064C66.6658 133.369 66.5485 121.728 65.2065 113.352L64.4973 108.921L68.8699 109.927C79.4905 112.37 85.566 112.659 89.0933 112.036C92.6213 111.414 93.8169 110.181 95.8863 108.132C97.8314 106.206 97.7951 105.513 97.3832 104.429C96.971 103.345 95.3176 101.559 92.5121 99.8493C86.901 96.4308 77.3664 93.2613 68.4543 90.8976C66.9926 90.5108 65.4882 90.3082 63.9763 90.2946ZM127.502 113.614C124.138 116.891 119.999 119.581 115.651 121.558C108.602 124.763 100.849 126.23 94.4162 124.095C92.1453 124.941 90.8261 125.912 90.1606 126.716C89.2475 127.819 89.1904 128.63 89.4998 129.793C89.8092 130.955 90.731 132.335 91.8712 133.328C93.011 134.321 94.3658 134.837 94.8808 134.861C110.601 135.608 117.404 131.097 125.88 125.864C128.352 124.338 129.298 121.247 129.061 118.161C128.943 116.617 128.493 115.167 127.975 114.254C127.846 114.021 127.687 113.805 127.502 113.614ZM71.6736 116.67C72.5897 125.091 72.6048 134.916 71.8893 143.563C71.4704 148.626 70.8227 153.23 69.9445 156.894C69.5626 158.489 69.1423 159.902 68.6344 161.147L117.915 158.975C117.359 156.909 116.792 154.835 116.225 152.76C114.332 153.39 112.397 153.886 110.434 154.246L110.449 154.491L107.655 154.665C105.935 154.871 104.144 154.985 102.286 154.998L74.1138 156.748L74.9513 152.849C77.621 140.417 77.8673 129.472 76.2205 117.497C74.6995 117.251 73.1835 116.975 71.6733 116.67H71.6736ZM82.4142 118.243C83.7405 128.971 83.5809 139.209 81.6059 150.225L88.0774 149.823C87.0623 148.325 86.3648 146.636 86.0282 144.858C85.5928 142.547 85.835 139.974 87.3471 137.847C87.414 137.753 87.4862 137.662 87.5577 137.571C85.7954 135.944 84.3233 133.855 83.6562 131.349C82.946 128.68 83.3894 125.413 85.5028 122.859C86.2012 122.016 87.0454 121.255 88.0368 120.57C87.16 119.871 86.3914 119.13 85.7275 118.358C84.6982 118.366 83.596 118.327 82.4142 118.243ZM126.982 132.28C119.102 137.069 110.249 141.645 94.5939 140.902C94.083 140.877 93.5752 140.808 93.0762 140.695C92.662 140.881 92.4409 141.117 92.276 141.349C91.9525 141.805 91.7613 142.626 91.9706 143.739C92.3899 145.965 94.4985 148.405 96.4621 148.633C110.365 150.25 119.971 145.702 125.803 140.41C128.491 137.972 128.514 136.413 128.118 134.716C127.92 133.868 127.483 133.047 126.982 132.28ZM124.737 148.762C123.803 149.347 122.845 149.892 121.865 150.395C122.42 152.428 122.975 154.46 123.524 156.493L130.216 155.293C128.489 153.82 127.138 152.285 126.053 150.76C125.569 150.078 125.142 149.416 124.737 148.762Z" fill="white" fill-opacity="0.27"/>
</svg>
