<svg width="150" height="150" viewBox="0 0 150 150" fill="none" xmlns="http://www.w3.org/2000/svg">
<path d="M25.7109 126.014C27.9658 126.014 29.7937 124.767 29.7937 123.23C29.7937 121.692 27.9658 120.445 25.7109 120.445C23.4561 120.445 21.6281 121.692 21.6281 123.23C21.6281 124.767 23.4561 126.014 25.7109 126.014Z" fill="white" fill-opacity="0.27"/>
<path d="M145.312 109.38L143.78 108.48C143.663 108.412 131.951 101.463 129.04 93.0305L128.391 91.1625L127.191 92.7305C127.153 92.7797 125.489 94.8375 120.832 97.2516C117.384 77.6273 105.656 54.1992 90.2438 44.2102C94.65 44.5664 99.0703 44.2008 103.336 42.6492C105.905 41.7164 104.796 37.5305 102.204 38.4773C98.707 39.75 95.2031 40.0969 91.7062 39.9187C100.291 32.0508 107.032 19.9922 107.032 11.175C107.032 9.05625 107.032 5.11172 103.891 5.11172C102.63 5.11172 101.611 5.89922 100.202 6.98672C98.0414 8.65312 94.7789 11.175 89.9859 11.175C88.1602 11.175 84.818 9.24844 82.132 7.70156C78.8859 5.83359 76.8117 4.6875 75.068 4.6875C72.1805 4.6875 67.9359 7.02187 64.1906 9.08203C62.6672 9.91875 60.5836 11.0672 60.1523 11.1773C54.7242 11.1773 51.5719 8.67422 49.4812 7.01719C48.2625 6.04687 47.3789 5.34375 46.2 5.34375C43.1109 5.34375 43.1109 9.04922 43.1109 13.3406C43.1109 21.6234 49.4203 32.557 57.682 39.9047C52.4766 40.2773 47.3437 41.85 43.7367 45.3445C41.7445 47.2711 44.7633 50.3273 46.7484 48.4055C49.7461 45.4992 53.6766 44.2547 57.8812 44.0133C58 44.4414 58.1477 44.8633 58.3242 45.2789C40.7086 57.9375 28.1953 87.9961 28.1953 108.288C28.1953 110.29 28.35 112.102 28.5891 113.808C24.0469 111.79 22.3898 110.02 22.357 109.98L21.1477 108.586L20.5523 110.344C17.9203 118.088 6.47812 124.805 6.36328 124.873L4.6875 125.845L6.39141 126.766C6.98906 127.09 7.58203 127.373 8.17969 127.68L7.10156 128.428L7.67109 135.553L52.3266 145.312L69.2578 134.482C70.9656 134.491 72.6984 134.496 74.4562 134.496L94.2469 145.312L138.987 131.25V123.729L137.803 123.019C138.394 122.644 138.984 122.26 139.573 121.868L141.141 120.82L140.796 120.652L142.791 120.105L143.128 112.287L141.975 111.469C142.589 111.102 143.202 110.724 143.815 110.337L145.312 109.38ZM47.3742 13.3406C47.3742 12.3 47.3883 11.4891 47.4094 10.8586C47.768 11.1398 48.1852 11.4469 48.6305 11.7633C49.9969 15.0352 52.582 19.7461 56.9648 22.7133C62.2898 26.3227 61.582 22.1742 64.4227 18.3867C67.2633 14.6016 69.1852 12.6188 73.943 22.3547C76.0172 26.5992 79.4742 14.7375 82.7602 13.0055C83.6297 13.4789 84.4969 13.9195 85.3477 14.2945C91.2398 23.8758 93.9703 20.8875 99.2039 12.9234C100.643 12.0797 101.824 11.175 102.764 10.4508C102.769 10.668 102.772 10.9109 102.773 11.1797C102.773 18.7031 96.6258 29.4937 89.0977 36.532C88.7418 35.6289 88.2328 34.794 87.593 34.0641C84.5531 30.6211 79.8023 34.4391 77.55 36.9445C73.5539 35.6602 67.043 32.1234 62.8008 34.1484C61.7441 34.6382 60.7737 35.2959 59.9273 36.0961C52.9898 29.7727 47.3742 20.6437 47.3742 13.3406ZM85.3523 39.0609C84.3016 38.8376 83.2568 38.5875 82.2188 38.3109C83.5266 37.1836 84.7266 36.7898 85.2305 38.4656C85.2844 38.6484 85.3172 38.857 85.3523 39.0609ZM67.5398 40.5164C66.7648 40.3664 65.9672 40.2375 65.1469 40.1297C64.5247 39.7401 63.9158 39.3297 63.3211 38.8992C65.4633 37.4625 69.157 38.2266 72.6867 39.4242C70.9453 39.6 69.2273 39.9797 67.5398 40.5164ZM68.6039 46.7039C67.2914 47.032 65.8617 46.9008 64.6266 46.4086C65.1281 46.1438 65.6344 45.9141 66.1406 45.682C66.9609 46.0781 67.7812 46.4086 68.6039 46.7039ZM25.2516 132.138C19.6613 130.52 14.2371 128.375 9.05156 125.733C12.232 123.642 19.1602 118.587 21.9773 112.512C23.9086 114.028 28.3664 116.794 37.0477 118.917C36.9 119.156 36.7195 119.412 36.5461 119.662C29.1352 117.722 24.9211 115.268 24.8531 115.226L23.8313 114.616L23.3414 115.711C22.6969 117.145 21.1852 117.361 20.3438 117.361C20.1094 117.361 19.9523 117.345 19.9312 117.342L19.0945 117.22L18.7898 118.022C18.1664 119.658 15.607 121.795 14.6695 122.482L13.1039 123.63L14.8945 124.364C15.5602 124.636 15.7406 124.887 15.75 124.952C15.7734 125.114 15.4898 125.541 15.1875 125.787L13.8234 126.886L15.4102 127.62C18.6609 129.12 22.343 130.362 26.025 131.386C25.7344 131.672 25.4766 131.923 25.2516 132.138ZM44.1516 123.405C47.4281 123.865 51.0586 124.155 55.0242 124.155H55.0266C55.85 124.155 56.6883 124.142 57.5414 124.116C57.6018 124.291 57.6829 124.459 57.7828 124.615C57.9906 124.932 58.2727 125.193 58.6289 125.398L52.6477 130.509L52.3055 130.502C49.6406 130.502 47.6531 131.482 46.6992 133.226C43.0852 132.764 39.4878 132.18 35.9133 131.475C38.7876 128.919 41.5369 126.226 44.1516 123.405ZM17.5523 126.211C17.7867 125.768 17.9391 125.231 17.857 124.645C17.782 124.116 17.5281 123.628 17.1375 123.262C18.1898 122.36 19.6406 120.968 20.4375 119.527C22.2492 119.501 23.7445 118.814 24.6867 117.6C26.2734 118.43 29.8477 120.105 35.1281 121.559C32.9695 124.266 30.0609 127.336 27.7992 129.619C24.2742 128.686 20.7234 127.561 17.5523 126.211ZM50.9531 136.076L50.4727 136.078C48.4547 136.078 41.768 135.914 32.9344 134.074C33.2438 133.812 33.5648 133.542 33.8625 133.284C41.0297 134.782 46.8094 135.424 47.243 135.473L48.1008 135.565L48.3656 134.733C48.9445 132.938 51.0797 132.673 52.3031 132.673C52.6383 132.673 52.8609 132.694 52.8867 132.696L53.3414 132.745L63.7312 123.867L60.9539 123.776C60.0258 123.743 59.6344 123.534 59.5383 123.391L60.1266 121.852L58.5 121.92C57.3141 121.971 56.1555 121.997 55.0242 121.997C51.7523 121.997 48.7148 121.781 45.9094 121.441L46.5609 120.673C52.2234 121.43 59.0039 121.896 67.1906 121.838C65.2359 124.58 60.3609 130.409 50.9531 136.076ZM74.4469 125.892V130.17C73.1141 130.17 71.8133 130.165 70.5445 130.155L70.1625 125.341L66.9891 125.599C69.1266 123.073 70.0383 121.388 70.1203 121.235L70.9805 119.609L69.1641 119.641C51.7781 119.96 40.4391 117.888 33.2812 115.587C32.7586 113.473 32.4562 111.082 32.4562 108.291C32.4562 89.2523 44.6227 60.4758 60.7758 48.8133C63.6375 51.5812 67.9781 52.793 72.1031 50.1C73.0078 49.5094 73.7953 48.7359 74.5336 47.9133C74.7094 47.918 74.8898 47.9578 75.068 47.9578C75.6586 47.9578 76.2586 47.9086 76.8562 47.8336C77.6133 48.1359 78.3539 48.4406 79.0406 48.743C82.3289 50.1914 85.1367 49.2914 87.0539 47.2945C101.85 56.2477 113.705 79.9312 116.824 99.075C110.06 101.78 99.3305 104.419 82.8633 104.883C86.1117 103.027 88.5492 99.9047 87.6727 95.8031C86.7516 91.4672 83.1281 90.2484 79.3758 90.0492C79.3648 88.0148 79.3664 85.9797 79.3805 83.9438C80.5312 84.4523 81.6352 85.0383 82.6383 85.6641C84.4102 86.7773 86.0133 83.8922 84.2531 82.7789C82.7269 81.8196 81.098 81.0342 79.3969 80.4375C79.4203 78.0812 79.432 75.7266 79.432 73.3734C79.4344 71.2172 76.2305 71.2172 76.2305 73.3734C76.2289 75.4437 76.218 77.5109 76.1977 79.575C74.4923 79.2778 72.7511 79.2486 71.0367 79.4883C70.7568 77.9371 70.4191 76.397 70.0242 74.8711C69.4945 72.7945 66.4008 73.6734 66.9375 75.757C67.3312 77.2547 67.6523 78.7453 67.9172 80.257C67.7813 80.3086 67.6336 80.3344 67.5 80.3953C63.1594 82.1133 60.5109 86.4937 63.6867 90.5789C65.1656 92.482 67.0992 93.2508 69.2156 93.5062C69.3305 96.3258 69.4031 99.1477 69.4852 101.965C68.0672 101.044 66.7758 99.8625 65.6063 98.6133C64.1578 97.0852 61.8961 99.4453 63.3422 100.971C65.3086 103.064 67.3734 104.646 69.6117 105.659C69.7125 108.066 69.8555 110.48 70.0898 112.875C70.2961 115.001 73.5023 115.012 73.2937 112.875C73.0965 110.803 72.9503 108.727 72.8555 106.648C74.0742 106.859 75.3539 106.913 76.7133 106.784C76.8656 109.001 77.0437 111.218 77.2969 113.435C77.4422 114.705 78.6563 115.205 79.5516 114.947L79.3523 119.55C77.9414 119.677 76.5023 119.794 75.0023 119.892L73.2164 120.009L74.168 121.547C74.2641 121.702 75.3445 123.41 77.7562 125.897H74.4469V125.892ZM132.778 110.466C129.832 111.851 126.105 113.121 122.309 114.23C119.974 111.818 116.988 108.6 114.759 105.745C119.726 104.241 122.505 102.689 123.759 101.852C124.751 102.727 126.063 103.181 127.617 103.179C128.133 103.179 128.59 103.13 128.941 103.073C130.066 104.531 131.88 106.214 133.015 107.22C132.477 107.771 132.219 108.377 132.239 109.038C132.258 109.601 132.483 110.079 132.778 110.466ZM116.009 118.167C116.488 118.589 116.98 119.019 117.485 119.456C107.984 121.976 100.912 122.25 99.3727 122.276C89.5336 116.273 84.4336 109.922 82.4672 107.063C90.7008 106.856 97.507 106.111 103.184 105.084C103.414 105.368 103.648 105.649 103.884 105.928C99.3219 106.639 94.7234 107.095 90.1102 107.295L88.2187 107.374L89.2594 108.966C89.257 108.968 89.0461 109.362 87.6492 109.634L85.3781 110.077L96.5438 119.116L97.0641 118.976C97.0758 118.973 98.0602 118.709 99.2508 118.709C100.969 118.709 102.143 119.231 102.734 120.253L103.109 120.9L103.838 120.771C107.92 120.027 111.979 119.159 116.009 118.167ZM82.9688 111.279L80.3016 111.134C80.1773 109.802 80.0531 108.471 79.9594 107.14C80.4281 107.918 81.3891 109.38 82.9688 111.279ZM79.6688 102.698C79.515 99.5435 79.422 96.3859 79.3898 93.2273C79.7773 93.243 80.1523 93.2766 80.5148 93.3281C84.6586 93.9562 85.7414 98.5641 82.507 101.156C81.6633 101.824 80.6906 102.314 79.6688 102.698ZM104.135 118.523C103.085 117.227 101.414 116.548 99.2531 116.548C98.3508 116.548 97.5562 116.67 97.0547 116.768L90.0352 111.08C90.6164 110.745 91.0141 110.319 91.2281 109.8C91.2806 109.67 91.3214 109.536 91.35 109.399C96.9141 109.095 101.602 108.539 105.565 107.859C107.487 110.004 110.311 112.962 114.056 116.4C109.455 117.495 105.619 118.245 104.135 118.523ZM76.1836 93.3117C76.2281 96.7078 76.3125 100.113 76.493 103.507C76.1906 103.554 75.893 103.613 75.5953 103.643C74.5875 103.758 73.6312 103.673 72.7219 103.444C72.607 100.163 72.532 96.8742 72.4078 93.5906C73.6687 93.532 74.9461 93.4078 76.1836 93.3117ZM72.2461 90.3469C72.1003 87.7715 71.858 85.2025 71.5195 82.6453C73.0729 82.4295 74.6531 82.5099 76.1766 82.882C76.1598 85.2781 76.1559 87.6742 76.1648 90.0703C75.1359 90.1266 74.1586 90.225 73.2984 90.3023C72.9483 90.3303 72.5973 90.3452 72.2461 90.3469ZM69.0305 89.9367C68.8312 89.8828 68.6344 89.8406 68.4305 89.7727C67.4938 89.4525 66.6453 88.9171 65.9531 88.2094C63.9516 86.3414 66.6984 84.5086 68.4305 83.6391C68.7023 85.725 68.8898 87.8297 69.0305 89.9367ZM94.8984 135.56C84.7242 130.362 79.2656 124.584 77.0977 121.908C78.6563 121.791 80.1305 121.65 81.5906 121.502L98.2734 132.33L134.859 122.28C115.992 133.652 97.3523 135.384 94.8984 135.56ZM125.114 117.068L124.031 115.983C128.194 114.722 132.22 113.259 135.223 111.652L137.048 110.67L135.197 109.727C134.782 109.514 134.377 109.123 134.37 108.975C134.374 108.919 134.538 108.619 135.248 108.211L136.603 107.433L135.398 106.43C135.361 106.399 131.604 103.28 130.284 101.271L129.848 100.615L129.101 100.833C129.094 100.833 128.452 101.018 127.617 101.018C126.328 101.02 125.362 100.598 124.744 99.7688L124.059 98.8617L123.202 99.6C123.157 99.6375 120.502 101.815 113.379 103.873C113.144 103.535 112.918 103.191 112.702 102.841C121.338 100.223 125.752 97.0547 127.664 95.3203C130.734 101.962 138.045 107.313 141.218 109.411C136.12 112.496 130.725 115.061 125.114 117.068Z" fill="white" fill-opacity="0.27"/>
<path d="M104.016 110.43C101.679 109.795 99.0422 110.229 98.1187 111.389C97.2023 112.554 98.3601 114.021 100.695 114.661C103.034 115.296 105.668 114.86 106.591 113.698C107.508 112.533 106.355 111.07 104.016 110.43Z" fill="white" fill-opacity="0.27"/>
</svg>
