<svg width="157" height="157" viewBox="0 0 157 157" fill="none" xmlns="http://www.w3.org/2000/svg">
<path d="M88.3125 104.667C88.3125 107.269 87.2787 109.765 85.4385 111.605C83.5983 113.445 81.1024 114.479 78.5 114.479C75.8976 114.479 73.4017 113.445 71.5615 111.605C69.7213 109.765 68.6875 107.269 68.6875 104.667C68.6875 102.064 69.7213 99.5685 71.5615 97.7283C73.4017 95.8881 75.8976 94.8542 78.5 94.8542C81.1024 94.8542 83.5983 95.8881 85.4385 97.7283C87.2787 99.5685 88.3125 102.064 88.3125 104.667Z" fill="#008F28"/>
<path d="M93.8533 4.31738L114.656 33.4671L128.374 28.7898L140.894 65.4165H147.187V143.917H9.8125V65.4165H13.1487V65.3511L17.3877 65.3904L93.8533 4.31738ZM61.472 65.4165H127.072L120.288 45.5757L110.332 48.7615L61.472 65.4165ZM51.2801 55.0611L101.723 37.8761L91.2301 23.1574L51.2801 55.0611ZM35.9792 78.4999H22.8958V91.5832C26.3657 91.5832 29.6935 90.2048 32.1471 87.7512C34.6007 85.2976 35.9792 81.9698 35.9792 78.4999ZM101.396 104.667C101.396 101.66 100.804 98.6825 99.653 95.9047C98.5024 93.1268 96.8159 90.6028 94.6898 88.4768C92.5637 86.3507 90.0397 84.6642 87.2619 83.5136C84.484 82.3629 81.5067 81.7707 78.5 81.7707C75.4933 81.7707 72.516 82.3629 69.7381 83.5136C66.9603 84.6642 64.4363 86.3507 62.3102 88.4768C60.1841 90.6028 58.4976 93.1268 57.347 95.9047C56.1964 98.6825 55.6042 101.66 55.6042 104.667C55.6042 110.739 58.0164 116.563 62.3102 120.856C66.604 125.15 72.4276 127.562 78.5 127.562C84.5724 127.562 90.396 125.15 94.6898 120.856C98.9836 116.563 101.396 110.739 101.396 104.667ZM134.104 130.833V117.75C130.634 117.75 127.306 119.128 124.853 121.582C122.399 124.036 121.021 127.363 121.021 130.833H134.104ZM121.021 78.4999C121.021 81.9698 122.399 85.2976 124.853 87.7512C127.306 90.2048 130.634 91.5832 134.104 91.5832V78.4999H121.021ZM22.8958 130.833H35.9792C35.9792 127.363 34.6007 124.036 32.1471 121.582C29.6935 119.128 26.3657 117.75 22.8958 117.75V130.833Z" fill="#008F28"/>
</svg>
