<svg width="78" height="78" viewBox="0 0 78 78" fill="none" xmlns="http://www.w3.org/2000/svg">
<g clip-path="url(#clip0_20_163)">
<path fill-rule="evenodd" clip-rule="evenodd" d="M44.0477 8.52986C44.0477 7.79104 44.3412 7.08248 44.8636 6.56006C45.3861 6.03763 46.0946 5.74414 46.8334 5.74414H55.887C56.6258 5.74414 57.3344 6.03763 57.8568 6.56006C58.3792 7.08248 58.6727 7.79104 58.6727 8.52986V16.3689H66.5061C67.245 16.3689 67.9535 16.6624 68.4759 17.1848C68.9984 17.7072 69.2919 18.4158 69.2919 19.1546V28.2081C69.2919 28.947 68.9984 29.6555 68.4759 30.1779C67.9535 30.7004 67.245 30.9939 66.5061 30.9939H58.6727V38.8273C58.6727 39.5661 58.3792 40.2747 57.8568 40.7971C57.3344 41.3195 56.6258 41.613 55.887 41.613H46.8334C46.0946 41.613 45.3861 41.3195 44.8636 40.7971C44.3412 40.2747 44.0477 39.5661 44.0477 38.8273V30.9939H36.2143C35.4755 30.9939 34.7669 30.7004 34.2445 30.1779C33.7221 29.6555 33.4286 28.947 33.4286 28.2081V19.1546C33.4286 18.4158 33.7221 17.7072 34.2445 17.1848C34.7669 16.6624 35.4755 16.3689 36.2143 16.3689H44.0477V8.52986ZM10.2681 39H0V61.2857L10.1846 71.4703C12.2542 73.5405 14.7114 75.1827 17.4158 76.3031C20.1202 77.4235 23.0188 78.0001 25.9461 78H58.5C60.7165 78 62.8421 77.1195 64.4094 75.5523C65.9767 73.985 66.8571 71.8593 66.8571 69.6429C66.8571 67.4264 65.9767 65.3007 64.4094 63.7335C62.8421 62.1662 60.7165 61.2857 58.5 61.2857H43.0281C42.4489 63.2389 41.3721 65.0079 39.9032 66.4195C38.4343 67.8311 36.6238 68.8368 34.6492 69.3379C32.6745 69.839 30.6036 69.8183 28.6394 69.278C26.6751 68.7376 24.885 67.696 23.4446 66.2554L15.366 58.1769C15.0426 57.8535 14.7861 57.4695 14.6111 57.047C14.4361 56.6245 14.346 56.1716 14.346 55.7143C14.346 55.2569 14.4361 54.8041 14.6111 54.3816C14.7861 53.959 15.0426 53.5751 15.366 53.2517C15.6894 52.9283 16.0733 52.6718 16.4958 52.4968C16.9184 52.3218 17.3712 52.2317 17.8286 52.2317C18.2859 52.2317 18.7388 52.3218 19.1613 52.4968C19.5838 52.6718 19.9678 52.9283 20.2911 53.2517L28.3697 61.3303C29.2207 62.1794 30.3597 62.6776 31.5608 62.726C32.762 62.7745 33.9374 62.3697 34.854 61.592C35.7706 60.8142 36.3614 59.7203 36.5092 58.5274C36.6569 57.3344 36.3508 56.1294 35.6516 55.1516L26.0297 45.5297C23.9601 43.4595 21.5029 41.8173 18.7985 40.6969C16.0941 39.5765 13.1954 38.9999 10.2681 39Z" fill="white" fill-opacity="0.27"/>
</g>
<defs>
<clipPath id="clip0_20_163">
<rect width="78" height="78" fill="white"/>
</clipPath>
</defs>
</svg>
