<svg width="72" height="72" viewBox="0 0 72 72" fill="none" xmlns="http://www.w3.org/2000/svg">
<path d="M15 33L19.5 19.5H52.5L57 33M52.5 48C51.3065 48 50.1619 47.5259 49.318 46.682C48.4741 45.8381 48 44.6935 48 43.5C48 42.3065 48.4741 41.1619 49.318 40.318C50.1619 39.4741 51.3065 39 52.5 39C53.6935 39 54.8381 39.4741 55.682 40.318C56.5259 41.1619 57 42.3065 57 43.5C57 44.6935 56.5259 45.8381 55.682 46.682C54.8381 47.5259 53.6935 48 52.5 48ZM19.5 48C18.3065 48 17.1619 47.5259 16.318 46.682C15.4741 45.8381 15 44.6935 15 43.5C15 42.3065 15.4741 41.1619 16.318 40.318C17.1619 39.4741 18.3065 39 19.5 39C20.6935 39 21.8381 39.4741 22.682 40.318C23.5259 41.1619 24 42.3065 24 43.5C24 44.6935 23.5259 45.8381 22.682 46.682C21.8381 47.5259 20.6935 48 19.5 48ZM56.76 18C56.16 16.26 54.48 15 52.5 15H19.5C17.52 15 15.84 16.26 15.24 18L9 36V60C9 60.7956 9.31607 61.5587 9.87868 62.1213C10.4413 62.6839 11.2044 63 12 63H15C15.7956 63 16.5587 62.6839 17.1213 62.1213C17.6839 61.5587 18 60.7956 18 60V57H54V60C54 60.7956 54.3161 61.5587 54.8787 62.1213C55.4413 62.6839 56.2044 63 57 63H60C60.7956 63 61.5587 62.6839 62.1213 62.1213C62.6839 61.5587 63 60.7956 63 60V36L56.76 18Z" fill="white" fill-opacity="0.27"/>
</svg>
