<svg width="52" height="52" viewBox="0 0 52 52" fill="none" xmlns="http://www.w3.org/2000/svg">
<g clip-path="url(#clip0_20_184)">
<path d="M25.3171 0.138744C25.5329 0.0462361 25.7652 -0.00146484 26 -0.00146484C26.2348 -0.00146484 26.4671 0.0462361 26.6829 0.138744L50.2667 10.2475L26 20.6475L1.73333 10.2475L25.3171 0.138744ZM0 13.2774V39.8667C0 40.5601 0.416 41.1841 1.0504 41.4614L24.2667 51.4107V23.6774L0 13.2774ZM27.7333 23.6774L52 13.2774V39.8667C52.0003 40.2062 51.9009 40.5383 51.7142 40.8218C51.5275 41.1052 51.2616 41.3277 50.9496 41.4614L27.7333 51.4107V23.6774Z" fill="white" fill-opacity="0.27"/>
</g>
<defs>
<clipPath id="clip0_20_184">
<rect width="52" height="52" fill="white"/>
</clipPath>
</defs>
</svg>
