<svg width="69" height="69" viewBox="0 0 69 69" fill="none" xmlns="http://www.w3.org/2000/svg">
<path d="M19.0325 31.0212C23.1725 39.1575 29.8425 45.7987 37.9788 49.9675L44.3037 43.6425C45.08 42.8663 46.23 42.6075 47.2363 42.9525C50.4563 44.0162 53.935 44.5913 57.5 44.5913C59.0813 44.5913 60.375 45.885 60.375 47.4663V57.5C60.375 59.0813 59.0813 60.375 57.5 60.375C30.5037 60.375 8.625 38.4963 8.625 11.5C8.625 9.91875 9.91875 8.625 11.5 8.625H21.5625C23.1438 8.625 24.4375 9.91875 24.4375 11.5C24.4375 15.0938 25.0125 18.5438 26.0762 21.7638C26.3925 22.77 26.1625 23.8913 25.3575 24.6963L19.0325 31.0212Z" fill="white" fill-opacity="0.27"/>
</svg>
