<svg width="65" height="66" viewBox="0 0 65 66" fill="none" xmlns="http://www.w3.org/2000/svg">
<path d="M49.5437 9.93614C49.3063 9.93674 49.0732 9.87363 48.8686 9.75341C43.2368 6.7383 38.3677 5.45917 32.5304 5.45917C26.7223 5.45917 21.2073 6.89058 16.191 9.75341C15.4816 10.1544 14.6073 9.87523 14.1961 9.13922C14.0126 8.78398 13.9712 8.3722 14.0803 7.98753C14.1895 7.60287 14.4409 7.27418 14.7837 7.06824C20.1938 3.99975 26.3107 2.3954 32.5304 2.41361C38.7776 2.41361 44.2342 3.84502 50.2188 7.04286C50.5679 7.23484 50.8279 7.55602 50.943 7.9375C51.058 8.31898 51.019 8.73036 50.8342 9.08338C50.7231 9.33402 50.5425 9.54756 50.3138 9.6987C50.0851 9.84984 49.8178 9.93224 49.5437 9.93614ZM7.56695 25.9253C7.26217 25.9232 6.9654 25.8275 6.71674 25.6512C6.39322 25.4108 6.17564 25.0542 6.10984 24.6565C6.04403 24.2589 6.13514 23.8512 6.36396 23.5193C9.26866 19.2556 12.9627 15.9054 17.3648 13.5604C26.5751 8.63162 38.3677 8.59609 47.6072 13.5299C52.008 15.875 55.7033 19.1946 58.608 23.428C58.8359 23.7601 58.9264 24.1675 58.8607 24.5649C58.7949 24.9623 58.578 25.3188 58.2552 25.5599C58.0987 25.6769 57.9197 25.7605 57.7295 25.8056C57.5393 25.8508 57.3419 25.8563 57.1494 25.8221C56.957 25.7878 56.7736 25.7145 56.6106 25.6065C56.4477 25.4985 56.3086 25.3583 56.202 25.1944C53.5625 21.357 50.2188 18.3419 46.2583 16.2404C37.8398 11.7635 27.0738 11.7635 18.6845 16.2709C14.6948 18.4028 11.3511 21.4484 8.71158 25.2807C8.59776 25.4823 8.43094 25.649 8.22918 25.7626C8.02741 25.8763 7.7984 25.9325 7.56695 25.9253ZM25.9 62.6903C25.7061 62.6922 25.5141 62.6524 25.337 62.5735C25.1599 62.4947 25.0017 62.3788 24.8734 62.2335C22.3214 59.5788 20.9382 57.8682 18.9777 54.1881C16.9473 50.4421 15.8978 45.8738 15.8978 40.9704C15.8978 31.9251 23.348 24.5548 32.5012 24.5548C41.6544 24.5548 49.1097 31.9251 49.1097 40.9704C49.1154 41.1666 49.0818 41.3619 49.0107 41.5449C48.9396 41.7278 48.8325 41.8946 48.6958 42.0355C48.5591 42.1763 48.3955 42.2882 48.2147 42.3647C48.0339 42.4411 47.8396 42.4805 47.6434 42.4805C47.4471 42.4805 47.2528 42.4411 47.072 42.3647C46.8913 42.2882 46.7277 42.1763 46.5909 42.0355C46.4542 41.8946 46.3471 41.7278 46.276 41.5449C46.2049 41.3619 46.1713 41.1666 46.1771 40.9704C46.1771 33.6001 40.0453 27.6004 32.5076 27.6004C24.9698 27.6004 18.8317 33.6001 18.8317 40.9704C18.8317 45.356 19.7695 49.4066 21.5588 52.6958C23.4369 56.1982 24.7312 57.6905 26.9862 60.0661C27.2536 60.3617 27.4017 60.7461 27.4017 61.1447C27.4017 61.5433 27.2536 61.9277 26.9862 62.2233C26.6983 62.5138 26.3089 62.6813 25.9 62.6903ZM46.9334 57.056C43.4424 57.056 40.3626 56.1424 37.8398 54.3455C35.6905 52.839 33.9347 50.8381 32.7201 48.5114C31.5055 46.1847 30.8677 43.6002 30.8604 40.9755C30.8522 40.7777 30.884 40.5803 30.9541 40.3952C31.0241 40.21 31.1308 40.0409 31.2678 39.8981C31.4049 39.7552 31.5694 39.6416 31.7514 39.5639C31.9335 39.4863 32.1294 39.4462 32.3274 39.4462C32.5253 39.4462 32.7212 39.4863 32.9033 39.5639C33.0854 39.6416 33.2499 39.7552 33.3869 39.8981C33.5239 40.0409 33.6307 40.21 33.7007 40.3952C33.7707 40.5803 33.8025 40.7777 33.7943 40.9755C33.7992 43.1074 34.3192 45.2066 35.3099 47.0943C36.3006 48.982 37.7328 50.6025 39.4844 51.8177C41.5668 53.2795 44.002 53.9749 46.9359 53.9749C47.9577 53.9568 48.9763 53.8549 49.9815 53.6704C50.7733 53.5181 51.536 54.0663 51.6819 54.9191C51.7563 55.3126 51.6715 55.7196 51.4462 56.0507C51.2209 56.3819 50.8735 56.6101 50.4802 56.6855C49.3117 56.9163 48.1244 57.0387 46.9334 57.051V57.056ZM41.0364 63.3248C40.9076 63.3195 40.7798 63.299 40.6557 63.2639C35.9909 61.9239 32.9403 60.127 29.7424 56.8682C25.6347 52.6349 23.3772 47.0006 23.3772 40.9704C23.3772 36.0366 27.4253 32.0165 32.4111 32.0165C37.397 32.0165 41.4463 36.0366 41.4463 40.9704C41.4463 44.2291 44.1746 46.8788 47.5476 46.8788C50.9205 46.8788 53.6488 44.2291 53.6488 40.9704C53.6488 29.4886 44.115 20.1692 32.3819 20.1692C24.0511 20.1692 16.4245 24.9812 12.9931 32.4428C11.851 34.9097 11.2622 37.803 11.2622 40.9704C11.2622 43.3459 11.4665 47.092 13.2266 51.9649C13.521 52.7567 13.1391 53.6399 12.3764 53.914C12.1952 53.9831 12.0018 54.0147 11.808 54.0071C11.6142 53.9996 11.424 53.9529 11.2487 53.8699C11.0734 53.787 10.9166 53.6694 10.7879 53.5243C10.6592 53.3793 10.5611 53.2097 10.4996 53.0257C9.08426 49.164 8.3592 45.0834 8.35753 40.9704C8.35753 37.3157 9.03263 33.991 10.3524 31.1028C14.2545 22.6006 22.9077 17.0932 32.3819 17.0932C45.7291 17.0932 56.5827 27.7831 56.5827 40.9399C56.5827 45.8738 52.5347 49.8939 47.5476 49.8939C42.5604 49.8939 38.5124 45.8738 38.5124 40.9399C38.5137 37.6812 35.7853 35.0265 32.4124 35.0265C29.0394 35.0265 26.3111 37.6761 26.3111 40.9349C26.3111 46.1377 28.2476 51.0157 31.7969 54.6703C34.5887 57.5332 37.2536 59.1118 41.3892 60.3046C42.181 60.5178 42.6214 61.3706 42.4158 62.1624C42.3517 62.4839 42.1803 62.774 41.9297 62.9852C41.679 63.1964 41.3641 63.3162 41.0364 63.3248Z" fill="#FDFDFD"/>
</svg>
